{
.appVersion = "1271";
copyright = "Copyright 2019 Google LLC. All Rights Reserved.";
customParameters = (
{
name = note;
value = "Noto Sans Elymaic\012_ in according to the Unicode Proposal by Anshuman Panday";
},
{
name = glyphOrder;
value = (
.notdef,
space,
"aleph-elym",
"aleph-elym.ss01",
"beth-elym",
"gimel-elym",
"gimel-elym.ss01",
"daleth-elym",
"daleth-elym.ss01",
"he-elym",
"he-elym.ss01",
"he-elym.ss02",
"waw-elym",
"zayin-elym",
"zayin-elym.ss01",
"heth-elym",
"teth-elym",
"yodh-elym",
"yodh-elym.ss01",
"kaph-elym",
"lamedh-elym",
"lamedh-elym.ss01",
"mem-elym",
"mem-elym.ss01",
"nun-elym",
"nun-elym.ss01",
"samekh-elym",
"samekh-elym.ss01",
"ayin-elym",
"pe-elym",
"pe-elym.ss01",
"sadhe-elym",
"sadhe-elym.ss01",
"qoph-elym",
"resh-elym",
"shin-elym",
"shin-elym.ss01",
"taw-elym",
"taw-elym.ss01",
"zayin_yodh-elym",
"zayin_yodh-elym.ss01",
"zayin_yodh-elym.ss02",
"zayin_yodh-elym.ss03"
);
},
{
name = vendorID;
value = GOOG;
},
{
name = "Disable Subroutines";
value = 1;
},
{
name = license;
value = "This Font Software is licensed under the SIL Open Font License, Version 1.1. This Font Software is distributed on an \"AS IS\" BASIS, WITHOUT WARRANTIES OR CONDITIONS OF ANY KIND, either express or implied. See the SIL Open Font License for the specific language, permissions and limitations governing your use of this Font Software.";
},
{
name = licenseURL;
value = "http://scripts.sil.org/OFL";
},
{
name = trademark;
value = "Noto is a trademark of Google LLC";
},
{
name = versionString;
value = "Version 1.000";
},
{
name = description;
value = "Designed by Morgane Pierson";
},
{
name = fsType;
value = (
);
}
);
date = "2019-12-04 11:05:40 +0000";
designer = "Morgane Pierson";
designerURL = "https://www.instagram.com/morgane_pierson/";
familyName = "Noto Sans Elymaic";
featurePrefixes = (
{
automatic = 1;
code = "languagesystem DFLT dflt;\012";
name = Languagesystems;
}
);
features = (
{
automatic = 1;

glyphs = (
{
glyphname = .notdef;
lastChange = "2019-11-27 16:04:03 +0000";
layers = (
{
layerId = "C1E7DAF6-BB1E-4783-B7AC-70632970FB79";
paths = (
{
closed = 1;
nodes = (
"505 0 LINE",
"505 720 LINE",
"94 720 LINE",
"94 0 LINE"
);
},
{
closed = 1;
nodes = (
"145 669 LINE",
"454 669 LINE",
"454 51 LINE",
"145 51 LINE"
);
}
);
width = 600;
}
);
note = .notdef;
},
{
glyphname = "aleph-elym";
lastChange = "2019-12-04 11:04:43 +0000";
layers = (
{
layerId = "C1E7DAF6-BB1E-4783-B7AC-70632970FB79";
paths = (
{
closed = 1;
nodes = (
"253 82 LINE",
"231 140 OFFCURVE",
"217 215 OFFCURVE",
"217 274 CURVE SMOOTH",
"217 410 OFFCURVE",
"282 500 OFFCURVE",
"391 500 CURVE SMOOTH",
"490 500 OFFCURVE",
"545 433 OFFCURVE",
"535 315 CURVE SMOOTH",
"528 216 LINE",
"615 216 LINE",
"623 317 LINE SMOOTH",
"632 430 OFFCURVE",
"706 500 OFFCURVE",
"807 500 CURVE SMOOTH",
"894 500 OFFCURVE",
"944 429 OFFCURVE",
"944 319 CURVE SMOOTH",
"944 257 OFFCURVE",
"915 157 OFFCURVE",
"875 82 CURVE"
);
},
{
closed = 1;
nodes = (
"990 92 OFFCURVE",
"1039 229 OFFCURVE",
"1039 322 CURVE SMOOTH",
"1039 475 OFFCURVE",
"951 580 OFFCURVE",
"816 580 CURVE SMOOTH",
"713 580 OFFCURVE",
"621 534 OFFCURVE",
"585 461 CURVE",
"597 456 LINE",
"570 532 OFFCURVE",
"486 580 OFFCURVE",
"391 580 CURVE SMOOTH",
"222 580 OFFCURVE",
"122 460 OFFCURVE",
"122 268 CURVE SMOOTH",
"122 188 OFFCURVE",
"146 86 OFFCURVE",
"185 0 CURVE",
"942 0 LINE"
);
}
);
width = 1158;
}
);
leftMetricsKey = _rond;
note = ALEPH;
rightMetricsKey = _rond;
unicode = 10FE0;
},
{
color = 0;
glyphname = "aleph-elym.ss01";
lastChange = "2019-12-04 11:04:39 +0000";
layers = (
{
layerId = "C1E7DAF6-BB1E-4783-B7AC-70632970FB79";
paths = (
{
closed = 1;
nodes = (
"814 82 LINE",
"253 82 LINE",
"231 140 OFFCURVE",
"217 215 OFFCURVE",
"217 274 CURVE SMOOTH",
"217 409 OFFCURVE",
"282 499 OFFCURVE",
"385 499 CURVE SMOOTH",
"490 499 OFFCURVE",
"545 432 OFFCURVE",
"535 315 CURVE SMOOTH",
"528 216 LINE",
"615 216 LINE",
"623 317 LINE SMOOTH",
"632 429 OFFCURVE",
"705 500 OFFCURVE",
"808 500 CURVE SMOOTH",
"888 500 OFFCURVE",
"933 449 OFFCURVE",
"933 369 CURVE SMOOTH",
"933 338 OFFCURVE",
"926 308 OFFCURVE",
"913 290 CURVE",
"994 242 LINE",
"1016 271 OFFCURVE",
"1029 313 OFFCURVE",
"1029 366 CURVE SMOOTH",
"1029 492 OFFCURVE",
"945 580 OFFCURVE",
"813 580 CURVE SMOOTH",
"712 580 OFFCURVE",
"621 533 OFFCURVE",
"585 461 CURVE",
"597 456 LINE",
"570 531 OFFCURVE",
"486 579 OFFCURVE",
"385 579 CURVE SMOOTH",
"222 579 OFFCURVE",
"122 459 OFFCURVE",
"122 281 CURVE SMOOTH",
"122 188 OFFCURVE",
"146 86 OFFCURVE",
"185 0 CURVE",
"806 0 LINE"
);
}
);
width = 1134;
}
);
leftMetricsKey = _rond;
note = ALEPH;
rightMetricsKey = "=_rond-10";
},
{
glyphname = "beth-elym";
lastChange = "2019-12-04 11:04:34 +0000";
layers = (
{
guideLines = (
{
angle = 270;
position = "{-196, 0}";
}
);
layerId = "C1E7DAF6-BB1E-4783-B7AC-70632970FB79";
paths = (
{
closed = 1;
nodes = (
"148 570 LINE",
"145 546 OFFCURVE",
"143 526 OFFCURVE",
"143 510 CURVE SMOOTH",
"143 403 OFFCURVE",
"210 335 OFFCURVE",
"342 315 CURVE SMOOTH",
"370 311 OFFCURVE",
"407 307 OFFCURVE",
"437 304 CURVE",
"456 371 LINE",
"423 374 OFFCURVE",
"384 380 OFFCURVE",
"349 389 CURVE SMOOTH",
"275 408 OFFCURVE",
"236 451 OFFCURVE",
"236 516 CURVE SMOOTH",
"236 531 OFFCURVE",
"238 549 OFFCURVE",
"243 570 CURVE"
);
},
{
closed = 1;
nodes = (
"528 570 LINE",
"509 496 OFFCURVE",
"470 434 OFFCURVE",
"405 367 CURVE SMOOTH",
"130 85 LINE",
"114 0 LINE",
"597 0 LINE",
"605 83 LINE",
"190 83 LINE",
"203 44 LINE",
"462 308 LINE SMOOTH",
"543 390 OFFCURVE",
"603 481 OFFCURVE",
"626 570 CURVE"
);
}
);
width = 738;
}
);
note = BETH;
unicode = 10FE1;
},
{
glyphname = "gimel-elym";
lastChange = "2019-12-04 11:04:30 +0000";
layers = (
{
layerId = "C1E7DAF6-BB1E-4783-B7AC-70632970FB79";
paths = (
{
closed = 1;
nodes = (
"536 88 OFFCURVE",
"514 144 OFFCURVE",
"501 227 CURVE SMOOTH",
"475 385 LINE SMOOTH",
"451 528 OFFCURVE",
"369 596 OFFCURVE",
"223 577 CURVE",
"217 492 LINE",
"345 518 OFFCURVE",
"375 444 OFFCURVE",
"389 362 CURVE SMOOTH",
"419 180 LINE SMOOTH",
"436 69 OFFCURVE",
"494 5 OFFCURVE",
"588 -9 CURVE",
"611 76 LINE"
);
},
{
closed = 1;
nodes = (
"179 173 OFFCURVE",
"240 250 OFFCURVE",
"359 250 CURVE SMOOTH",
"388 250 OFFCURVE",
"419 245 OFFCURVE",
"441 236 CURVE",
"447 316 LINE",
"407 329 OFFCURVE",
"369 335 OFFCURVE",
"334 335 CURVE SMOOTH",
"182 336 OFFCURVE",
"93 226 OFFCURVE",
"73 0 CURVE",
"165 0 LINE"
);
}
);
width = 709;
}
);
note = Gimmel;
unicode = 10FE2;
},
{
color = 0;
glyphname = "gimel-elym.ss01";
lastChange = "2019-12-04 11:04:26 +0000";
layers = (
{
layerId = "C1E7DAF6-BB1E-4783-B7AC-70632970FB79";
paths = (
{
closed = 1;
nodes = (
"436 153 OFFCURVE",
"499 37 OFFCURVE",
"593 -8 CURVE",
"631 73 LINE",
"569 105 OFFCURVE",
"528 191 OFFCURVE",
"528 289 CURVE SMOOTH",
"528 384 OFFCURVE",
"582 465 OFFCURVE",
"662 493 CURVE",
"636 578 LINE",
"516 527 OFFCURVE",
"436 409 OFFCURVE",
"436 283 CURVE SMOOTH"
);
},
{
closed = 1;
nodes = (
"194 10 OFFCURVE",
"194 18 OFFCURVE",
"194 28 CURVE SMOOTH",
"194 193 OFFCURVE",
"237 359 OFFCURVE",
"344 359 CURVE SMOOTH",
"391 359 OFFCURVE",
"448 329 OFFCURVE",
"468 292 CURVE",
"528 351 LINE",
"487 406 OFFCURVE",
"406 445 OFFCURVE",
"337 445 CURVE SMOOTH",
"180 445 OFFCURVE",
"102 241 OFFCURVE",
"102 27 CURVE SMOOTH",
"102 17 OFFCURVE",
"102 9 OFFCURVE",
"103 0 CURVE",
"195 0 LINE"
);
}
);
width = 745;
}
);
note = Gimmel;
},
{
glyphname = "daleth-elym";
lastChange = "2019-12-04 11:04:23 +0000";
layers = (
{
guideLines = (
{
angle = 85.3216;
position = "{-202, 0}";
}
);
layerId = "C1E7DAF6-BB1E-4783-B7AC-70632970FB79";
paths = (
{
closed = 1;
nodes = (
"262 349 LINE",
"230 76 LINE",
"252 81 OFFCURVE",
"285 84 OFFCURVE",
"303 84 CURVE SMOOTH",
"397 84 OFFCURVE",
"452 40 OFFCURVE",
"452 -35 CURVE SMOOTH",
"452 -137 OFFCURVE",
"371 -207 OFFCURVE",
"273 -207 CURVE SMOOTH",
"226 -207 OFFCURVE",
"192 -198 OFFCURVE",
"160 -180 CURVE",
"115 -258 LINE",
"147 -278 OFFCURVE",
"197 -290 OFFCURVE",
"254 -290 CURVE SMOOTH",
"429 -290 OFFCURVE",
"548 -187 OFFCURVE",
"548 -34 CURVE SMOOTH",
"548 87 OFFCURVE",
"451 163 OFFCURVE",
"306 158 CURVE",
"327 134 LINE",
"352 349 LINE"
);
},
{
closed = 1;
nodes = (
"451 276 OFFCURVE",
"555 423 OFFCURVE",
"542 570 CURVE",
"449 570 LINE",
"453 461 OFFCURVE",
"406 349 OFFCURVE",
"302 349 CURVE SMOOTH",
"232 349 OFFCURVE",
"188 405 OFFCURVE",
"188 493 CURVE SMOOTH",
"188 515 OFFCURVE",
"192 548 OFFCURVE",
"198 570 CURVE",
"106 570 LINE",
"98 544 OFFCURVE",
"94 512 OFFCURVE",
"94 488 CURVE SMOOTH",
"94 364 OFFCURVE",
"181 276 OFFCURVE",
"303 276 CURVE SMOOTH"
);
}
);
width = 662;
}
);
note = dalet;
unicode = 10FE3;
},
{
color = 0;
glyphname = "daleth-elym.ss01";
lastChange = "2019-12-04 11:04:17 +0000";
layers = (
{
guideLines = (
{
angle = 85.3216;
position = "{-141, 0}";
}
);
layerId = "C1E7DAF6-BB1E-4783-B7AC-70632970FB79";
paths = (
{
closed = 1;
nodes = (
"102 570 LINE",
"97 545 OFFCURVE",
"95 517 OFFCURVE",
"95 490 CURVE SMOOTH",
"95 378 OFFCURVE",
"190 337 OFFCURVE",
"259 315 CURVE SMOOTH",
"341 287 LINE",
"384 345 LINE",
"295 379 LINE SMOOTH",
"237 399 OFFCURVE",
"188 421 OFFCURVE",
"188 501 CURVE SMOOTH",
"188 523 OFFCURVE",
"191 546 OFFCURVE",
"197 570 CURVE"
);
},
{
closed = 1;
nodes = (
"185 -207 OFFCURVE",
"151 -198 OFFCURVE",
"119 -180 CURVE",
"74 -258 LINE",
"109 -278 OFFCURVE",
"163 -290 OFFCURVE",
"225 -290 CURVE SMOOTH",
"379 -290 OFFCURVE",
"523 -210 OFFCURVE",
"523 -70 CURVE SMOOTH",
"523 4 OFFCURVE",
"478 50 OFFCURVE",
"408 89 CURVE SMOOTH",
"341 126 LINE SMOOTH",
"314 141 OFFCURVE",
"298 162 OFFCURVE",
"298 184 CURVE SMOOTH",
"298 212 OFFCURVE",
"311 235 OFFCURVE",
"340 262 CURVE SMOOTH",
"415 328 LINE SMOOTH",
"490 394 OFFCURVE",
"508 470 OFFCURVE",
"505 571 CURVE",
"412 571 LINE",
"412 557 OFFCURVE",
"413 544 OFFCURVE",
"413 531 CURVE SMOOTH",
"413 466 OFFCURVE",
"398 422 OFFCURVE",
"345 374 CURVE SMOOTH",
"272 309 LINE SMOOTH",
"232 274 OFFCURVE",
"203 229 OFFCURVE",
"203 176 CURVE SMOOTH",
"203 132 OFFCURVE",
"225 93 OFFCURVE",
"282 62 CURVE SMOOTH",
"358 20 LINE SMOOTH",
"404 -6 OFFCURVE",
"426 -36 OFFCURVE",
"426 -77 CURVE SMOOTH",
"426 -155 OFFCURVE",
"332 -207 OFFCURVE",
"232 -207 CURVE SMOOTH"
);
}
);
width = 630;
}
);
leftMetricsKey = "daleth-elym";
note = daleth;
rightMetricsKey = "=daleth-elym-10";
},
{
glyphname = "he-elym";
lastChange = "2019-12-04 11:04:06 +0000";
layers = (
{
components = (
{
name = _part.T;
transform = "{1, 0, 0, 1, 356, 0}";
}
);
guideLines = (
{
angle = 264.8056;
position = "{-347, 0}";
},
{
angle = 264.8056;
position = "{-347, 0}";
}
);
layerId = "C1E7DAF6-BB1E-4783-B7AC-70632970FB79";
paths = (
{
closed = 1;
nodes = (
"503 466 OFFCURVE",
"433 580 OFFCURVE",
"295 580 CURVE SMOOTH",
"199 580 OFFCURVE",
"123 505 OFFCURVE",
"123 412 CURVE SMOOTH",
"123 300 OFFCURVE",
"213 230 OFFCURVE",
"354 230 CURVE SMOOTH",
"629 230 LINE",
"636 305 LINE",
"359 305 LINE SMOOTH",
"266 305 OFFCURVE",
"208 346 OFFCURVE",
"208 412 CURVE SMOOTH",
"208 467 OFFCURVE",
"243 506 OFFCURVE",
"295 506 CURVE SMOOTH",
"376 506 OFFCURVE",
"417 421 OFFCURVE",
"417 337 CURVE SMOOTH",
"417 164 OFFCURVE",
"313 84 OFFCURVE",
"127 73 CURVE",
"127 -10 LINE",
"347 4 OFFCURVE",
"503 116 OFFCURVE",
"503 337 CURVE SMOOTH"
);
}
);
width = 867;
}
);
leftMetricsKey = "=_rond-10";
note = he;
rightMetricsKey = _droit;
unicode = 10FE4;
},
{
color = 0;
glyphname = "he-elym.ss01";
lastChange = "2019-12-04 11:04:01 +0000";
layers = (
{
components = (
{
name = _part.T;
transform = "{1, 0, 0, 1, 374, 0}";
}
);
guideLines = (
{
angle = 264.8056;
position = "{-384, 0}";
},
{
angle = 264.8056;
position = "{-384, 0}";
}
);
layerId = "C1E7DAF6-BB1E-4783-B7AC-70632970FB79";
paths = (
{
closed = 1;
nodes = (
"262 1 LINE",
"313 -19 OFFCURVE",
"403 -34 OFFCURVE",
"476 -36 CURVE",
"492 36 LINE",
"427 38 OFFCURVE",
"368 47 OFFCURVE",
"308 64 CURVE"
);
},
{
closed = 1;
nodes = (
"658 228 LINE",
"671 305 LINE",
"345 305 LINE SMOOTH",
"257 305 OFFCURVE",
"199 349 OFFCURVE",
"199 414 CURVE SMOOTH",
"199 462 OFFCURVE",
"226 504 OFFCURVE",
"282 504 CURVE SMOOTH",
"346 504 OFFCURVE",
"382 443 OFFCURVE",
"382 368 CURVE SMOOTH",
"382 249 OFFCURVE",
"335 116 OFFCURVE",
"262 1 CURVE",
"357 1 LINE",
"418 95 OFFCURVE",
"468 259 OFFCURVE",
"468 364 CURVE SMOOTH",
"468 486 OFFCURVE",
"410 580 OFFCURVE",
"283 580 CURVE SMOOTH",
"176 580 OFFCURVE",
"113 496 OFFCURVE",
"113 412 CURVE SMOOTH",
"113 302 OFFCURVE",
"217 228 OFFCURVE",
"336 228 CURVE SMOOTH"
);
}
);
width = 885;
}
);
leftMetricsKey = "=he-elym-10";
note = he;
rightMetricsKey = _droit;
},
{
color = 4;
glyphname = "he-elym.ss02";
lastChange = "2019-12-04 11:03:56 +0000";
layers = (
{
components = (
{
name = _part.T;
transform = "{1, 0, 0, 1, 313, 0}";
}
);
guideLines = (
{
angle = 264.8056;
position = "{-227, 0}";
},
{
angle = 264.8056;
position = "{-227, 0}";
}
);
layerId = "C1E7DAF6-BB1E-4783-B7AC-70632970FB79";
paths = (
{
closed = 1;
nodes = (
"382 248 LINE",
"412 286 OFFCURVE",
"439 343 OFFCURVE",
"439 404 CURVE SMOOTH",
"439 508 OFFCURVE",
"365 579 OFFCURVE",
"266 579 CURVE SMOOTH",
"167 579 OFFCURVE",
"93 504 OFFCURVE",
"93 413 CURVE SMOOTH",
"93 302 OFFCURVE",
"188 227 OFFCURVE",
"333 227 CURVE SMOOTH",
"584 227 LINE",
"591 306 LINE",
"326 306 LINE SMOOTH",
"241 306 OFFCURVE",
"182 351 OFFCURVE",
"182 418 CURVE SMOOTH",
"182 465 OFFCURVE",
"214 501 OFFCURVE",
"263 501 CURVE SMOOTH",
"323 501 OFFCURVE",
"353 448 OFFCURVE",
"353 397 CURVE SMOOTH",
"353 352 OFFCURVE",
"337 307 OFFCURVE",
"301 272 CURVE"
);
}
);
width = 824;
}
);
leftMetricsKey = "=he-elym-30";
note = he;
rightMetricsKey = _droit;
},
{
glyphname = "waw-elym";
lastChange = "2019-12-04 11:03:51 +0000";
layers = (
{
guideLines = (
{
angle = 264.8056;
position = "{-195, 0}";
}
);
layerId = "C1E7DAF6-BB1E-4783-B7AC-70632970FB79";
paths = (
{
closed = 1;
nodes = (
"241 0 LINE SMOOTH",
"480 0 OFFCURVE",
"533 97 OFFCURVE",
"552 303 CURVE SMOOTH",
"568 465 OFFCURVE",
"544 571 OFFCURVE",
"326 571 CURVE SMOOTH",
"178 571 LINE",
"171 491 LINE",
"319 491 LINE SMOOTH",
"469 491 OFFCURVE",
"476 415 OFFCURVE",
"463 303 CURVE SMOOTH",
"443 141 OFFCURVE",
"415 83 OFFCURVE",
"252 83 CURVE SMOOTH",
"117 83 LINE",
"111 0 LINE"
);
}
);
width = 691;
}
);
note = WAW;
rightMetricsKey = "=_rond+20";
unicode = 10FE5;
},
{
glyphname = "zayin-elym";
lastChange = "2019-12-04 11:03:45 +0000";
layers = (
{
layerId = "C1E7DAF6-BB1E-4783-B7AC-70632970FB79";
paths = (
{
closed = 1;
nodes = (
"88 1 OFFCURVE",
"147 -10 OFFCURVE",
"197 -10 CURVE SMOOTH",
"328 -10 OFFCURVE",
"431 41 OFFCURVE",
"431 163 CURVE SMOOTH",
"431 208 OFFCURVE",
"411 263 OFFCURVE",
"398 297 CURVE SMOOTH",
"370 373 LINE SMOOTH",
"345 440 OFFCURVE",
"378 494 OFFCURVE",
"448 494 CURVE SMOOTH",
"456 494 OFFCURVE",
"463 494 OFFCURVE",
"471 493 CURVE",
"480 578 LINE",
"469 579 OFFCURVE",
"458 580 OFFCURVE",
"450 580 CURVE SMOOTH",
"312 580 OFFCURVE",
"242 475 OFFCURVE",
"289 347 CURVE SMOOTH",
"314 280 LINE SMOOTH",
"326 248 OFFCURVE",
"340 200 OFFCURVE",
"340 165 CURVE SMOOTH",
"340 103 OFFCURVE",
"285 71 OFFCURVE",
"197 71 CURVE SMOOTH",
"159 71 OFFCURVE",
"121 80 OFFCURVE",
"94 95 CURVE",
"56 16 LINE"
);
}
);
width = 609;
}
);
leftMetricsKey = "lamedh-elym";
note = zayin;
unicode = 10FE6;
},
{
color = 0;
glyphname = "zayin-elym.ss01";
lastChange = "2019-12-04 11:03:41 +0000";
layers = (
{
guideLines = (
{
angle = 264.8056;
position = "{-269, 0}";
},
{
angle = 264.8056;
position = "{-269, 0}";
}
);
layerId = "C1E7DAF6-BB1E-4783-B7AC-70632970FB79";
paths = (
{
closed = 1;
nodes = (
"348 570 LINE",
"324 296 LINE SMOOTH",
"313 161 OFFCURVE",
"291 71 OFFCURVE",
"177 71 CURVE SMOOTH",
"138 71 OFFCURVE",
"100 81 OFFCURVE",
"72 97 CURVE",
"36 16 LINE",
"67 1 OFFCURVE",
"126 -10 OFFCURVE",
"172 -10 CURVE SMOOTH",
"355 -10 OFFCURVE",
"396 104 OFFCURVE",
"413 288 CURVE SMOOTH",
"439 570 LINE"
);
}
);
width = 569;
}
);
leftMetricsKey = "=lamedh-elym-20";
note = zayin;
rightMetricsKey = "=_droit-5";
},
{
glyphname = "heth-elym";
lastChange = "2019-12-04 11:03:38 +0000";
layers = (
{
components = (
{
name = _part.termleft;
transform = "{1, 0, 0, 1, -109, 0}";
}
);
guideLines = (
{
angle = 263.7131;
position = "{365, 0}";
}
);
layerId = "C1E7DAF6-BB1E-4783-B7AC-70632970FB79";
paths = (
{
closed = 1;
nodes = (
"436 271 LINE SMOOTH",
"587 271 OFFCURVE",
"658 341 OFFCURVE",
"671 505 CURVE SMOOTH",
"676 570 LINE",
"588 570 LINE",
"583 505 LINE SMOOTH",
"575 395 OFFCURVE",
"536 352 OFFCURVE",
"445 352 CURVE SMOOTH",
"351 352 LINE",
"343 271 LINE"
);
},
{
closed = 1;
nodes = (
"285 -3 OFFCURVE",
"343 96 OFFCURVE",
"356 236 CURVE SMOOTH",
"387 570 LINE",
"299 570 LINE",
"269 236 LINE SMOOTH",
"261 144 OFFCURVE",
"229 79 OFFCURVE",
"161 76 CURVE",
"153 -5 LINE"
);
}
);
width = 747;
}
);
leftMetricsKey = "lamedh-elym";
note = het;
unicode = 10FE7;
},
{
glyphname = "teth-elym";
lastChange = "2019-12-04 11:03:34 +0000";
layers = (
{
layerId = "C1E7DAF6-BB1E-4783-B7AC-70632970FB79";
paths = (
{
closed = 1;
nodes = (
"138 492 LINE",
"411 492 LINE",
"418 570 LINE",
"145 570 LINE"
);
},
{
closed = 1;
nodes = (
"512 470 LINE",
"505 392 LINE",
"773 392 LINE",
"781 470 LINE"
);
},
{
closed = 1;
nodes = (
"188 5 LINE",
"279 5 LINE",
"329 546 LINE",
"240 546 LINE"
);
},
{
closed = 1;
nodes = (
"602 422 LINE",
"590 200 OFFCURVE",
"606 88 OFFCURVE",
"379 88 CURVE SMOOTH",
"198 88 LINE",
"190 5 LINE",
"366 5 LINE SMOOTH",
"662 5 OFFCURVE",
"680 122 OFFCURVE",
"689 422 CURVE"
);
}
);
width = 869;
}
);
note = TETH;
unicode = 10FE8;
},
{
glyphname = "yodh-elym";
lastChange = "2019-12-04 11:03:30 +0000";
layers = (
{
layerId = "C1E7DAF6-BB1E-4783-B7AC-70632970FB79";
paths = (
{
closed = 1;
nodes = (
"242 416 OFFCURVE",
"249 493 OFFCURVE",
"244 570 CURVE",
"150 570 LINE",
"155 494 OFFCURVE",
"148 420 OFFCURVE",
"131 337 CURVE",
"225 337 LINE"
);
}
);
width = 360;
}
);
note = YODH;
unicode = 10FE9;
},
{
glyphname = "kaph-elym";
lastChange = "2019-12-04 11:03:11 +0000";
layers = (
{
components = (
{
name = _part.utop;
transform = "{1, 0, 0.08749, 1, -38, 0}";
}
);
guideLines = (
{
angle = 270;
position = "{138, 0}";
}
);
layerId = "C1E7DAF6-BB1E-4783-B7AC-70632970FB79";
paths = (
{
closed = 1;
nodes = (
"224 -210 OFFCURVE",
"176 -179 OFFCURVE",
"176 -116 CURVE SMOOTH",
"176 -103 OFFCURVE",
"178 -83 OFFCURVE",
"184 -65 CURVE",
"90 -55 LINE",
"85 -76 OFFCURVE",
"83 -99 OFFCURVE",
"83 -111 CURVE SMOOTH",
"83 -216 OFFCURVE",
"172 -290 OFFCURVE",
"287 -290 CURVE SMOOTH",
"471 -290 OFFCURVE",
"564 -149 OFFCURVE",
"564 59 CURVE SMOOTH",
"564 112 OFFCURVE",
"552 219 OFFCURVE",
"552 283 CURVE SMOOTH",
"552 379 OFFCURVE",
"566 478 OFFCURVE",
"594 570 CURVE",
"499 570 LINE",
"476 488 OFFCURVE",
"464 386 OFFCURVE",
"464 283 CURVE SMOOTH",
"464 232 OFFCURVE",
"474 106 OFFCURVE",
"474 64 CURVE SMOOTH",
"474 -101 OFFCURVE",
"419 -210 OFFCURVE",
"294 -210 CURVE SMOOTH"
);
}
);
width = 718;
}
);
leftMetricsKey = "=_rond-5";
note = KAPH;
unicode = 10FEA;
},
{
glyphname = "lamedh-elym";
lastChange = "2019-12-04 11:03:08 +0000";
layers = (
{
components = (
{
name = _part.termleft;
transform = "{1, 0, 0, 1, -110, -5}";
}
);
layerId = "C1E7DAF6-BB1E-4783-B7AC-70632970FB79";
paths = (
{
closed = 1;
nodes = (
"320 -10 OFFCURVE",
"350 159 OFFCURVE",
"363 309 CURVE SMOOTH",
"398 720 LINE",
"307 720 LINE",
"274 328 LINE SMOOTH",
"265 218 OFFCURVE",
"257 72 OFFCURVE",
"160 71 CURVE",
"152 -10 LINE"
);
}
);
width = 521;
}
);
note = LAMEDH;
rightMetricsKey = _droit;
unicode = 10FEB;
},
{
color = 0;
glyphname = "lamedh-elym.ss01";
lastChange = "2019-12-04 11:03:04 +0000";
layers = (
{
components = (
{
name = _part.termleft;
transform = "{1, 0, 0, 1, -110, -5}";
}
);
layerId = "C1E7DAF6-BB1E-4783-B7AC-70632970FB79";
paths = (
{
closed = 1;
nodes = (
"285 740 LINE",
"245 696 OFFCURVE",
"233 627 OFFCURVE",
"233 560 CURVE SMOOTH",
"233 532 OFFCURVE",
"235 505 OFFCURVE",
"238 479 CURVE SMOOTH",
"257 300 LINE SMOOTH",
"260 266 OFFCURVE",
"263 239 OFFCURVE",
"263 209 CURVE SMOOTH",
"263 134 OFFCURVE",
"243 71 OFFCURVE",
"160 71 CURVE",
"151 -10 LINE",
"284 -10 OFFCURVE",
"352 64 OFFCURVE",
"352 191 CURVE SMOOTH",
"352 225 OFFCURVE",
"348 272 OFFCURVE",
"343 318 CURVE SMOOTH",
"323 492 LINE SMOOTH",
"321 514 OFFCURVE",
"320 537 OFFCURVE",
"320 560 CURVE SMOOTH",
"320 609 OFFCURVE",
"328 658 OFFCURVE",
"357 687 CURVE"
);
}
);
width = 511;
}
);
leftMetricsKey = "lamedh-elym";
note = LAMEDH;
rightMetricsKey = "=lamedh-elym-10";
},
{
glyphname = "mem-elym";
lastChange = "2019-12-04 11:03:01 +0000";
layers = (
{
layerId = "C1E7DAF6-BB1E-4783-B7AC-70632970FB79";
paths = (
{
closed = 1;
nodes = (
"349 290 LINE",
"423 373 OFFCURVE",
"509 458 OFFCURVE",
"593 513 CURVE",
"530 578 LINE",
"443 510 OFFCURVE",
"366 429 OFFCURVE",
"303 343 CURVE",
"328 343 LINE",
"271 427 OFFCURVE",
"234 500 OFFCURVE",
"218 570 CURVE",
"119 570 LINE",
"139 474 OFFCURVE",
"193 373 OFFCURVE",
"275 278 CURVE",
"277 319 LINE",
"202 228 OFFCURVE",
"135 117 OFFCURVE",
"95 -1 CURVE",
"188 -10 LINE",
"211 69 OFFCURVE",
"269 187 OFFCURVE",
"323 254 CURVE",
"301 254 LINE",
"382 152 OFFCURVE",
"474 63 OFFCURVE",
"559 -5 CURVE",
"611 75 LINE",
"522 134 OFFCURVE",
"430 222 OFFCURVE",
"349 322 CURVE"
);
}
);
width = 704;
}
);
note = mem;
unicode = 10FEC;
},
{
color = 0;
glyphname = "mem-elym.ss01";
lastChange = "2019-12-04 11:02:58 +0000";
layers = (
{
layerId = "C1E7DAF6-BB1E-4783-B7AC-70632970FB79";
paths = (
{
closed = 1;
nodes = (
"312 250 LINE",
"506 250 LINE",
"506 333 LINE",
"312 333 LINE"
);
},
{
closed = 1;
nodes = (
"75 -10 LINE",
"262 -10 OFFCURVE",
"359 148 OFFCURVE",
"359 295 CURVE SMOOTH",
"359 419 OFFCURVE",
"282 576 OFFCURVE",
"103 580 CURVE",
"97 500 LINE",
"215 505 OFFCURVE",
"274 391 OFFCURVE",
"274 299 CURVE SMOOTH",
"274 188 OFFCURVE",
"208 67 OFFCURVE",
"83 73 CURVE"
);
},
{
closed = 1;
nodes = (
"607 67 OFFCURVE",
"541 188 OFFCURVE",
"541 299 CURVE SMOOTH",
"541 391 OFFCURVE",
"600 505 OFFCURVE",
"718 500 CURVE",
"712 580 LINE",
"533 576 OFFCURVE",
"456 419 OFFCURVE",
"456 295 CURVE SMOOTH",
"456 148 OFFCURVE",
"553 -10 OFFCURVE",
"740 -10 CURVE",
"732 73 LINE"
);
}
);
width = 843;
}
);
note = mem;
},
{
color = 0;
glyphname = "nun-elym.ss01";
lastChange = "2019-12-04 11:02:53 +0000";
layers = (
{
components = (
{
name = _part.J;
transform = "{1, 0, 0, 1, -299, 0}";
}
);
layerId = "C1E7DAF6-BB1E-4783-B7AC-70632970FB79";
paths = (
{
closed = 1;
nodes = (
"163 490 LINE",
"446 490 LINE",
"453 570 LINE",
"170 570 LINE"
);
}
);
width = 540;
}
);
leftMetricsKey = "nun-elym";
note = NUN;
},
{
glyphname = "samekh-elym";
lastChange = "2019-12-04 11:02:49 +0000";
layers = (
{
components = (
{
name = _part.termleft;
transform = "{1, 0, 0, 1, -164, -285}";
}
);
guideLines = (
{
angle = 264.8056;
position = "{804, 0}";
}
);
layerId = "C1E7DAF6-BB1E-4783-B7AC-70632970FB79";
paths = (
{
closed = 1;
nodes = (
"391 70 OFFCURVE",
"343 100 OFFCURVE",
"295 142 CURVE",
"287 62 LINE",
"335 16 OFFCURVE",
"399 -10 OFFCURVE",
"466 -10 CURVE SMOOTH",
"628 -10 OFFCURVE",
"731 120 OFFCURVE",
"731 324 CURVE SMOOTH",
"731 477 OFFCURVE",
"641 580 OFFCURVE",
"506 580 CURVE SMOOTH",
"434 580 OFFCURVE",
"355 543 OFFCURVE",
"291 481 CURVE",
"316 405 LINE",
"364 463 OFFCURVE",
"432 499 OFFCURVE",
"497 499 CURVE SMOOTH",
"584 499 OFFCURVE",
"636 431 OFFCURVE",
"636 320 CURVE SMOOTH",
"636 173 OFFCURVE",
"562 70 OFFCURVE",
"457 70 CURVE SMOOTH"
);
},
{
closed = 1;
nodes = (
"271 -290 OFFCURVE",
"296 -132 OFFCURVE",
"310 29 CURVE SMOOTH",
"325 194 LINE SMOOTH",
"329 234 OFFCURVE",
"334 286 OFFCURVE",
"334 331 CURVE SMOOTH",
"334 422 OFFCURVE",
"324 506 OFFCURVE",
"278 593 CURVE",
"190 555 LINE",
"226 494 OFFCURVE",
"242 425 OFFCURVE",
"242 331 CURVE SMOOTH",
"242 287 OFFCURVE",
"240 252 OFFCURVE",
"235 201 CURVE SMOOTH",
"221 48 LINE SMOOTH",
"212 -62 OFFCURVE",
"204 -208 OFFCURVE",
"107 -209 CURVE",
"99 -290 LINE"
);
}
);
width = 851;
}
);
note = SAMEKH;
rightMetricsKey = _rond;
unicode = 10FEE;
},
{
color = 0;
glyphname = "samekh-elym.ss01";
lastChange = "2019-12-04 11:02:44 +0000";
layers = (
{
components = (
{
name = _part.termleft;
transform = "{1, 0, 0, 1, -164, -285}";
}
);
guideLines = (
{
angle = 264.8056;
position = "{806, 0}";
}
);
layerId = "C1E7DAF6-BB1E-4783-B7AC-70632970FB79";
paths = (
{
closed = 1;
nodes = (
"564 70 OFFCURVE",
"510 140 OFFCURVE",
"510 256 CURVE SMOOTH",
"510 398 OFFCURVE",
"587 499 OFFCURVE",
"688 499 CURVE SMOOTH",
"772 499 OFFCURVE",
"826 429 OFFCURVE",
"826 314 CURVE SMOOTH",
"826 171 OFFCURVE",
"749 70 OFFCURVE",
"648 70 CURVE SMOOTH"
);
},
{
closed = 1;
nodes = (
"523 580 OFFCURVE",
"418 452 OFFCURVE",
"418 252 CURVE SMOOTH",
"418 95 OFFCURVE",
"510 -10 OFFCURVE",
"648 -10 CURVE SMOOTH",
"813 -10 OFFCURVE",
"918 118 OFFCURVE",
"918 318 CURVE SMOOTH",
"918 475 OFFCURVE",
"826 580 OFFCURVE",
"688 580 CURVE SMOOTH"
);
},
{
closed = 1;
nodes = (
"306 260 LINE",
"448 260 LINE",
"448 340 LINE",
"306 340 LINE"
);
},
{
closed = 1;
nodes = (
"270 -290 OFFCURVE",
"295 -136 OFFCURVE",
"309 29 CURVE SMOOTH",
"354 570 LINE",
"264 570 LINE",
"220 48 LINE SMOOTH",
"211 -62 OFFCURVE",
"203 -208 OFFCURVE",
"106 -209 CURVE",
"98 -290 LINE"
);
}
);
width = 1038;
}
);
leftMetricsKey = "samekh-elym";
note = SAMEKH;
rightMetricsKey = "samekh-elym";
},
{
glyphname = "ayin-elym";
lastChange = "2019-12-04 11:02:09 +0000";
layers = (
{
guideLines = (
{
position = "{-256, 0}";
},
{
angle = 66.2277;
position = "{-255, 0}";
}
);
layerId = "C1E7DAF6-BB1E-4783-B7AC-70632970FB79";
paths = (
{
closed = 1;
nodes = (
"183 570 LINE",
"170 528 OFFCURVE",
"162 489 OFFCURVE",
"162 450 CURVE SMOOTH",
"162 333 OFFCURVE",
"243 220 OFFCURVE",
"400 124 CURVE",
"442 195 LINE",
"320 267 OFFCURVE",
"254 355 OFFCURVE",
"254 446 CURVE SMOOTH",
"254 485 OFFCURVE",
"266 528 OFFCURVE",
"282 570 CURVE"
);
},
{
closed = 1;
nodes = (
"179 71 OFFCURVE",
"141 80 OFFCURVE",
"114 95 CURVE",
"76 16 LINE",
"108 1 OFFCURVE",
"167 -10 OFFCURVE",
"217 -10 CURVE SMOOTH",
"419 -10 OFFCURVE",
"509 145 OFFCURVE",
"571 349 CURVE SMOOTH",
"584 392 LINE SMOOTH",
"604 459 OFFCURVE",
"621 515 OFFCURVE",
"642 570 CURVE",
"549 570 LINE",
"533 521 OFFCURVE",
"519 474 OFFCURVE",
"502 416 CURVE SMOOTH",
"489 373 LINE SMOOTH",
"436 197 OFFCURVE",
"375 71 OFFCURVE",
"217 71 CURVE SMOOTH"
);
}
);
width = 697;
}
);
note = AYIN;
unicode = 10FEF;
},
{
glyphname = "pe-elym";
lastChange = "2019-12-04 11:02:04 +0000";
layers = (
{
guideLines = (
{
angle = 84.9462;
position = "{-113, 0}";
}
);
layerId = "C1E7DAF6-BB1E-4783-B7AC-70632970FB79";
paths = (
{
closed = 1;
nodes = (
"104 -219 OFFCURVE",
"179 -290 OFFCURVE",
"278 -290 CURVE SMOOTH",
"463 -290 OFFCURVE",
"515 -128 OFFCURVE",
"531 37 CURVE SMOOTH",
"577 495 LINE",
"522 549 OFFCURVE",
"444 580 OFFCURVE",
"358 580 CURVE SMOOTH",
"221 580 OFFCURVE",
"142 483 OFFCURVE",
"142 392 CURVE SMOOTH",
"142 333 OFFCURVE",
"168 283 OFFCURVE",
"216 249 CURVE",
"278 309 LINE",
"252 328 OFFCURVE",
"236 359 OFFCURVE",
"236 392 CURVE SMOOTH",
"236 449 OFFCURVE",
"288 500 OFFCURVE",
"358 500 CURVE SMOOTH",
"408 500 OFFCURVE",
"456 482 OFFCURVE",
"488 450 CURVE",
"441 39 LINE SMOOTH",
"428 -83 OFFCURVE",
"401 -210 OFFCURVE",
"286 -210 CURVE SMOOTH",
"233 -210 OFFCURVE",
"194 -181 OFFCURVE",
"194 -122 CURVE SMOOTH",
"194 -107 OFFCURVE",
"196 -90 OFFCURVE",
"200 -72 CURVE",
"110 -62 LINE",
"106 -80 OFFCURVE",
"104 -107 OFFCURVE",
"104 -122 CURVE SMOOTH"
);
}
);
width = 714;
}
);
note = pe;
rightMetricsKey = "=_droit-5";
unicode = 10FF0;
},
{
color = 0;
glyphname = "pe-elym.ss01";
lastChange = "2019-12-04 11:02:01 +0000";
layers = (
{
guideLines = (
{
angle = 84.9462;
position = "{-132, 0}";
}
);
layerId = "C1E7DAF6-BB1E-4783-B7AC-70632970FB79";
paths = (
{
closed = 1;
nodes = (
"86 -219 OFFCURVE",
"161 -290 OFFCURVE",
"260 -290 CURVE SMOOTH",
"445 -290 OFFCURVE",
"497 -128 OFFCURVE",
"513 37 CURVE SMOOTH",
"559 494 LINE",
"504 548 OFFCURVE",
"426 579 OFFCURVE",
"340 579 CURVE SMOOTH",
"221 579 OFFCURVE",
"145 498 OFFCURVE",
"132 413 CURVE",
"224 394 LINE",
"230 451 OFFCURVE",
"281 499 OFFCURVE",
"340 499 CURVE SMOOTH",
"390 499 OFFCURVE",
"438 481 OFFCURVE",
"470 449 CURVE",
"423 39 LINE SMOOTH",
"410 -83 OFFCURVE",
"383 -210 OFFCURVE",
"268 -210 CURVE SMOOTH",
"215 -210 OFFCURVE",
"176 -181 OFFCURVE",
"176 -122 CURVE SMOOTH",
"176 -107 OFFCURVE",
"178 -90 OFFCURVE",
"182 -72 CURVE",
"92 -62 LINE",
"88 -80 OFFCURVE",
"86 -107 OFFCURVE",
"86 -122 CURVE SMOOTH"
);
}
);
width = 696;
}
);
rightMetricsKey = "=_droit-5";
},
{
glyphname = "sadhe-elym";
lastChange = "2019-12-04 11:01:58 +0000";
layers = (
{
components = (
{
name = _part.j;
transform = "{1, 0, 0, 1, -134, 0}";
}
);
layerId = "C1E7DAF6-BB1E-4783-B7AC-70632970FB79";
paths = (
{
closed = 1;
nodes = (
"247 302 LINE",
"483 302 LINE",
"490 383 LINE",
"253 383 LINE"
);
},
{
closed = 1;
nodes = (
"442 180 OFFCURVE",
"533 88 OFFCURVE",
"670 88 CURVE SMOOTH",
"719 88 LINE",
"727 170 LINE",
"689 170 LINE SMOOTH",
"597 170 OFFCURVE",
"536 229 OFFCURVE",
"536 318 CURVE SMOOTH",
"536 421 OFFCURVE",
"604 489 OFFCURVE",
"707 489 CURVE SMOOTH",
"754 489 LINE",
"761 570 LINE",
"716 570 LINE SMOOTH",
"552 570 OFFCURVE",
"442 469 OFFCURVE",
"442 318 CURVE SMOOTH"
);
}
);
width = 814;
}
);
leftMetricsKey = "nun-elym";
note = SADHE;
unicode = 10FF1;
},
{
color = 0;
glyphname = "sadhe-elym.ss01";
lastChange = "2019-12-04 11:01:54 +0000";
layers = (
{
guideLines = (
{
position = "{38, -62}";
}
);
layerId = "C1E7DAF6-BB1E-4783-B7AC-70632970FB79";
paths = (
{
closed = 1;
nodes = (
"640 339 OFFCURVE",
"677 272 OFFCURVE",
"672 172 CURVE",
"764 169 LINE",
"771 318 OFFCURVE",
"696 418 OFFCURVE",
"578 418 CURVE SMOOTH",
"458 418 OFFCURVE",
"382 318 OFFCURVE",
"388 169 CURVE",
"484 172 LINE",
"478 272 OFFCURVE",
"516 339 OFFCURVE",
"578 339 CURVE SMOOTH"
);
},
{
closed = 1;
nodes = (
"285 384 OFFCURVE",
"308 497 OFFCURVE",
"427 497 CURVE SMOOTH",
"496 497 OFFCURVE",
"538 446 OFFCURVE",
"539 386 CURVE",
"624 386 LINE",
"623 496 OFFCURVE",
"547 580 OFFCURVE",
"423 580 CURVE SMOOTH",
"253 580 OFFCURVE",
"194 443 OFFCURVE",
"207 270 CURVE SMOOTH",
"217 141 LINE SMOOTH",
"220 106 OFFCURVE",
"222 76 OFFCURVE",
"222 54 CURVE SMOOTH",
"222 -109 OFFCURVE",
"165 -210 OFFCURVE",
"71 -210 CURVE SMOOTH",
"11 -210 OFFCURVE",
"-25 -179 OFFCURVE",
"-25 -122 CURVE SMOOTH",
"-25 -110 OFFCURVE",
"-23 -92 OFFCURVE",
"-19 -72 CURVE",
"-114 -62 LINE",
"-118 -83 OFFCURVE",
"-120 -109 OFFCURVE",
"-120 -127 CURVE SMOOTH",
"-120 -221 OFFCURVE",
"-40 -290 OFFCURVE",
"65 -290 CURVE SMOOTH",
"246 -290 OFFCURVE",
"314 -134 OFFCURVE",
"314 38 CURVE SMOOTH",
"314 70 OFFCURVE",
"312 107 OFFCURVE",
"308 147 CURVE SMOOTH",
"298 252 LINE SMOOTH"
);
}
);
width = 840;
}
);
leftMetricsKey = "nun-elym";
note = SADHE;
},
{
glyphname = "qoph-elym";
lastChange = "2019-12-04 11:01:51 +0000";
layers = (
{
components = (
{
name = _part.T;
transform = "{1, 0, 0, 1, -4, 0}";
},
{
name = _part.T;
transform = "{1, 0, 0, 1, -18, -151}";
}
);
layerId = "C1E7DAF6-BB1E-4783-B7AC-70632970FB79";
paths = (
{
closed = 1;
nodes = (
"134 490 LINE",
"499 490 LINE",
"507 570 LINE",
"142 570 LINE"
);
}
);
width = 591;
}
);
note = QOPH;
unicode = 10FF2;
},
{
glyphname = "resh-elym";
lastChange = "2019-12-04 11:01:48 +0000";
layers = (
{
components = (
{
name = _part.utop;
transform = "{1, 0, 0.08749, 1, -43, 0}";
}
);
guideLines = (
{
position = "{219, 0}";
},
{
angle = -74.3217;
position = "{219, 0}";
}
);
layerId = "C1E7DAF6-BB1E-4783-B7AC-70632970FB79";
paths = (
{
closed = 1;
nodes = (
"506 570 LINE",
"492 520 OFFCURVE",
"485 469 OFFCURVE",
"485 429 CURVE SMOOTH",
"485 380 OFFCURVE",
"496 328 OFFCURVE",
"496 291 CURVE SMOOTH",
"496 170 OFFCURVE",
"455 71 OFFCURVE",
"318 71 CURVE SMOOTH",
"255 71 OFFCURVE",
"192 89 OFFCURVE",
"153 123 CURVE",
"107 47 LINE",
"147 17 OFFCURVE",
"227 -10 OFFCURVE",
"313 -10 CURVE SMOOTH",
"490 -10 OFFCURVE",
"581 103 OFFCURVE",
"581 266 CURVE SMOOTH",
"581 315 OFFCURVE",
"571 391 OFFCURVE",
"571 433 CURVE SMOOTH",
"571 481 OFFCURVE",
"579 521 OFFCURVE",
"595 570 CURVE"
);
}
);
width = 739;
}
);
leftMetricsKey = "=_rond-10";
note = RESH;
rightMetricsKey = "=_droit-5";
unicode = 10FF3;
},
{
glyphname = "shin-elym";
lastChange = "2019-11-28 14:33:30 +0000";
layers = (
{
components = (
{
name = _part.angleleft.n;
transform = "{1, 0, 0, 1, 447, 0}";
},
{
name = _part.spirale;
transform = "{1, 0, 0, 1, -146, 0}";
}
);
guideLines = (
{
angle = 66.2277;
position = "{483, 0}";
}
);
layerId = "C1E7DAF6-BB1E-4783-B7AC-70632970FB79";
paths = (
{
closed = 1;
nodes = (
"596 522 LINE",
"536 0 LINE",
"624 0 LINE",
"678 522 LINE"
);
},
{
closed = 1;
nodes = (
"760 579 LINE",
"300 570 LINE",
"292 490 LINE",
"752 498 LINE"
);
}
);
width = 1142;
}
);
leftMetricsKey = "lamedh-elym";
note = shin;
rightMetricsKey = _droit;
unicode = 10FF4;
},
{
color = 0;
glyphname = "shin-elym.ss01";
lastChange = "2019-11-28 13:17:50 +0000";
layers = (
{
components = (
{
name = _part.angleleft.n;
transform = "{1, 0, 0, 1, 447, 0}";
},
{
name = _part.spirale;
transform = "{1, 0, 0, 1, -146, 0}";
}
);
guideLines = (
{
angle = 66.2277;
position = "{493, 0}";
}
);
layerId = "C1E7DAF6-BB1E-4783-B7AC-70632970FB79";
paths = (
{
closed = 1;
nodes = (
"702 542 LINE",
"472 0 LINE",
"564 -10 LINE",
"788 542 LINE"
);
},
{
closed = 1;
nodes = (
"760 579 LINE",
"300 570 LINE",
"292 490 LINE",
"752 498 LINE"
);
}
);
width = 1142;
}
);
leftMetricsKey = "shin-elym";
note = shin;
rightMetricsKey = "shin-elym";
},
{
glyphname = "taw-elym";
lastChange = "2019-11-28 13:17:50 +0000";
layers = (
{
components = (
{
name = _part.spirale;
transform = "{1, 0, 0, 1, -146, 0}";
},
{
name = _part.T;
transform = "{1, 0, 0, 1, 396, 0}";
}
);
guideLines = (
{
angle = 84.9462;
position = "{483, 0}";
}
);
layerId = "C1E7DAF6-BB1E-4783-B7AC-70632970FB79";
paths = (
{
closed = 1;
nodes = (
"755 480 LINE",
"300 480 LINE",
"292 399 LINE",
"747 399 LINE"
);
}
);
width = 907;
}
);
leftMetricsKey = "shin-elym";
note = TAW;
rightMetricsKey = "shin-elym";
unicode = 10FF5;
},
{
color = 0;
glyphname = "taw-elym.ss01";
lastChange = "2019-11-28 13:17:50 +0000";
layers = (
{
components = (
{
name = _part.T;
transform = "{1, 0, 0, 1, 413, 0}";
}
);
guideLines = (
{
angle = 84.9462;
position = "{500, 0}";
}
);
layerId = "C1E7DAF6-BB1E-4783-B7AC-70632970FB79";
paths = (
{
closed = 1;
nodes = (
"96 66 OFFCURVE",
"178 -10 OFFCURVE",
"278 -10 CURVE SMOOTH",
"410 -10 OFFCURVE",
"483 110 OFFCURVE",
"483 257 CURVE SMOOTH",
"483 264 OFFCURVE",
"483 273 OFFCURVE",
"483 283 CURVE",
"712 283 LINE",
"705 364 LINE",
"476 364 LINE",
"465 433 OFFCURVE",
"450 498 OFFCURVE",
"437 570 CURVE",
"349 570 LINE",
"363 498 OFFCURVE",
"376 433 OFFCURVE",
"384 364 CURVE",
"360 364 LINE SMOOTH",
"210 364 OFFCURVE",
"96 305 OFFCURVE",
"96 163 CURVE SMOOTH"
);
},
{
closed = 1;
nodes = (
"187 240 OFFCURVE",
"248 283 OFFCURVE",
"349 283 CURVE SMOOTH",
"416 283 LINE",
"388 342 LINE",
"391 319 OFFCURVE",
"392 280 OFFCURVE",
"392 258 CURVE SMOOTH",
"392 159 OFFCURVE",
"360 70 OFFCURVE",
"278 70 CURVE SMOOTH",
"215 70 OFFCURVE",
"187 117 OFFCURVE",
"187 167 CURVE SMOOTH"
);
},
{
closed = 1;
nodes = (
"253 491 LINE",
"536 491 LINE",
"543 571 LINE",
"260 571 LINE"
);
}
);
width = 924;
}
);
leftMetricsKey = "=_rond-15";
note = TAW;
rightMetricsKey = _droit;
},
{
glyphname = "zayin_yodh-elym";
lastChange = "2019-12-04 11:01:40 +0000";
layers = (
{
layerId = "C1E7DAF6-BB1E-4783-B7AC-70632970FB79";
paths = (
{
closed = 1;
nodes = (
"277 70 OFFCURVE",
"237 177 OFFCURVE",
"237 279 CURVE SMOOTH",
"237 347 OFFCURVE",
"256 479 OFFCURVE",
"292 570 CURVE",
"192 570 LINE",
"167 492 OFFCURVE",
"142 354 OFFCURVE",
"142 284 CURVE SMOOTH",
"142 123 OFFCURVE",
"222 -10 OFFCURVE",
"392 -10 CURVE SMOOTH",
"568 -10 OFFCURVE",
"619 139 OFFCURVE",
"577 310 CURVE SMOOTH",
"556 378 LINE SMOOTH",
"538 435 OFFCURVE",
"561 486 OFFCURVE",
"627 486 CURVE SMOOTH",
"633 486 OFFCURVE",
"640 485 OFFCURVE",
"645 484 CURVE",
"656 570 LINE",
"648 572 OFFCURVE",
"637 573 OFFCURVE",
"628 573 CURVE SMOOTH",
"499 573 OFFCURVE",
"441 478 OFFCURVE",
"479 348 CURVE SMOOTH",
"496 290 LINE SMOOTH",
"524 184 OFFCURVE",
"499 70 OFFCURVE",
"384 70 CURVE SMOOTH"
);
}
);
width = 786;
}
);
leftMetricsKey = "=_rond+20";
note = "LIGATURE ZAYIN-YODH";
rightMetricsKey = "zayin-elym";
unicode = 10FF6;
},
{
color = 0;
glyphname = "zayin_yodh-elym.ss01";
lastChange = "2019-12-04 11:01:37 +0000";
layers = (
{
layerId = "C1E7DAF6-BB1E-4783-B7AC-70632970FB79";
paths = (
{
closed = 1;
nodes = (
"124 339 OFFCURVE",
"230 206 OFFCURVE",
"393 206 CURVE SMOOTH",
"556 206 OFFCURVE",
"662 339 OFFCURVE",
"689 570 CURVE",
"593 570 LINE",
"571 389 OFFCURVE",
"499 290 OFFCURVE",
"393 290 CURVE SMOOTH",
"287 290 OFFCURVE",
"215 389 OFFCURVE",
"193 570 CURVE",
"97 570 LINE"
);
}
);
width = 741;
}
);
note = "LIGATURE ZAYIN-YODH";
},
{
color = 4;
glyphname = "zayin_yodh-elym.ss02";
lastChange = "2019-12-04 11:01:31 +0000";
layers = (
{
layerId = "C1E7DAF6-BB1E-4783-B7AC-70632970FB79";
paths = (
{
closed = 1;
nodes = (
"498 573 OFFCURVE",
"434 511 OFFCURVE",
"434 417 CURVE SMOOTH",
"434 391 OFFCURVE",
"441 365 OFFCURVE",
"449 341 CURVE SMOOTH",
"468 280 LINE SMOOTH",
"481 238 OFFCURVE",
"485 206 OFFCURVE",
"485 168 CURVE SMOOTH",
"485 132 OFFCURVE",
"474 74 OFFCURVE",
"436 74 CURVE SMOOTH",
"413 74 OFFCURVE",
"394 96 OFFCURVE",
"381 118 CURVE SMOOTH",
"322 215 LINE SMOOTH",
"301 250 OFFCURVE",
"274 282 OFFCURVE",
"223 282 CURVE SMOOTH",
"124 282 OFFCURVE",
"67 153 OFFCURVE",
"52 0 CURVE",
"144 0 LINE",
"145 77 OFFCURVE",
"174 197 OFFCURVE",
"220 197 CURVE SMOOTH",
"235 197 OFFCURVE",
"244 186 OFFCURVE",
"252 173 CURVE SMOOTH",
"309 79 LINE SMOOTH",
"339 30 OFFCURVE",
"376 -10 OFFCURVE",
"431 -10 CURVE SMOOTH",
"529 -10 OFFCURVE",
"573 77 OFFCURVE",
"573 168 CURVE SMOOTH",
"573 215 OFFCURVE",
"562 263 OFFCURVE",
"551 300 CURVE SMOOTH",
"530 368 LINE SMOOTH",
"525 383 OFFCURVE",
"522 400 OFFCURVE",
"522 415 CURVE SMOOTH",
"522 456 OFFCURVE",
"551 486 OFFCURVE",
"600 486 CURVE SMOOTH",
"606 486 OFFCURVE",
"613 485 OFFCURVE",
"618 484 CURVE",
"629 570 LINE",
"621 572 OFFCURVE",
"610 573 OFFCURVE",
"602 573 CURVE SMOOTH"
);
}
);
width = 759;
}
);
note = "LIGATURE ZAYIN-YODH";
rightMetricsKey = "zayin-elym";
},
{
color = 7;
glyphname = "zayin_yodh-elym.ss03";
lastChange = "2019-12-04 11:01:25 +0000";
layers = (
{
layerId = "C1E7DAF6-BB1E-4783-B7AC-70632970FB79";
paths = (
{
closed = 1;
nodes = (
"532 435 OFFCURVE",
"563 486 OFFCURVE",
"624 486 CURVE SMOOTH",
"630 486 OFFCURVE",
"636 486 OFFCURVE",
"642 485 CURVE",
"652 570 LINE",
"645 572 OFFCURVE",
"636 573 OFFCURVE",
"627 573 CURVE SMOOTH",
"494 573 OFFCURVE",
"435 478 OFFCURVE",
"476 338 CURVE SMOOTH",
"493 280 LINE SMOOTH",
"501 251 OFFCURVE",
"505 219 OFFCURVE",
"505 191 CURVE SMOOTH",
"505 113 OFFCURVE",
"457 73 OFFCURVE",
"361 73 CURVE SMOOTH",
"304 73 OFFCURVE",
"231 75 OFFCURVE",
"157 85 CURVE",
"149 4 LINE",
"222 -4 OFFCURVE",
"296 -8 OFFCURVE",
"354 -8 CURVE SMOOTH",
"507 -8 OFFCURVE",
"592 61 OFFCURVE",
"592 191 CURVE SMOOTH",
"592 215 OFFCURVE",
"585 263 OFFCURVE",
"574 300 CURVE SMOOTH",
"553 368 LINE SMOOTH"
);
},
{
closed = 1;
nodes = (
"185 570 LINE",
"137 -151 LINE",
"228 -151 LINE",
"237 0 LINE",
"275 570 LINE"
);
}
);
width = 782;
}
);
leftMetricsKey = _droit;
note = "LIGATURE ZAYIN-YODH";
rightMetricsKey = "zayin-elym";
},
{
export = 0;
glyphname = _part.Desc2;
lastChange = "2019-12-04 11:01:16 +0000";
layers = (
{
layerId = "C1E7DAF6-BB1E-4783-B7AC-70632970FB79";
paths = (
{
closed = 1;
nodes = (
"161 -10 OFFCURVE",
"216 -23 OFFCURVE",
"259 -23 CURVE SMOOTH",
"416 -23 OFFCURVE",
"452 77 OFFCURVE",
"452 227 CURVE SMOOTH",
"452 514 LINE",
"362 514 LINE",
"362 221 LINE SMOOTH",
"362 118 OFFCURVE",
"342 57 OFFCURVE",
"259 57 CURVE SMOOTH",
"232 57 OFFCURVE",
"193 69 OFFCURVE",
"168 84 CURVE",
"133 6 LINE"
);
}
);
width = 615;
}
);
rightMetricsKey = "zayin_yodh-elym";
},
{
export = 0;
glyphname = _part.J;
lastChange = "2019-12-04 11:01:11 +0000";
layers = (
{
layerId = "C1E7DAF6-BB1E-4783-B7AC-70632970FB79";
paths = (
{
closed = 1;
nodes = (
"566 570 LINE",
"523 54 LINE SMOOTH",
"512 -84 OFFCURVE",
"481 -210 OFFCURVE",
"361 -210 CURVE SMOOTH",
"308 -210 OFFCURVE",
"269 -181 OFFCURVE",
"269 -122 CURVE SMOOTH",
"269 -107 OFFCURVE",
"271 -90 OFFCURVE",
"275 -72 CURVE",
"185 -62 LINE",
"181 -80 OFFCURVE",
"179 -107 OFFCURVE",
"179 -122 CURVE SMOOTH",
"179 -219 OFFCURVE",
"254 -290 OFFCURVE",
"353 -290 CURVE SMOOTH",
"544 -290 OFFCURVE",
"599 -128 OFFCURVE",
"614 54 CURVE SMOOTH",
"657 570 LINE"
);
}
);
width = 848;
}
);
},
{
export = 0;
glyphname = _part.T;
lastChange = "2019-12-04 11:01:04 +0000";
layers = (
{
layerId = "C1E7DAF6-BB1E-4783-B7AC-70632970FB79";
paths = (
{
closed = 1;
nodes = (
"285 570 LINE",
"233 0 LINE",
"323 0 LINE",
"376 570 LINE"
);
}
);
width = 607;
}
);
},
{
export = 0;
glyphname = _part.angleleft.n;
lastChange = "2019-12-04 11:00:58 +0000";
layers = (
{
guideLines = (
{
angle = 265;
position = "{-1061, 0}";
},
{
angle = 265;
position = "{-1061, 0}";
}
);
layerId = "C1E7DAF6-BB1E-4783-B7AC-70632970FB79";
paths = (
{
closed = 1;
nodes = (
"510 0 LINE",
"536 312 LINE SMOOTH",
"550 475 OFFCURVE",
"519 588 OFFCURVE",
"313 579 CURVE",
"304 498 LINE",
"448 506 OFFCURVE",
"455 429 OFFCURVE",
"444 296 CURVE SMOOTH",
"420 0 LINE"
);
}
);
width = 708;
}
);
},
{
export = 0;
glyphname = _part.desc;
lastChange = "2019-12-04 11:00:51 +0000";
layers = (
{
layerId = "C1E7DAF6-BB1E-4783-B7AC-70632970FB79";
paths = (
{
closed = 1;
nodes = (
"445 231 LINE",
"355 231 LINE",
"334 39 LINE SMOOTH",
"321 -83 OFFCURVE",
"294 -210 OFFCURVE",
"179 -210 CURVE SMOOTH",
"126 -210 OFFCURVE",
"87 -181 OFFCURVE",
"87 -122 CURVE SMOOTH",
"87 -107 OFFCURVE",
"89 -90 OFFCURVE",
"93 -72 CURVE",
"3 -62 LINE",
"-1 -80 OFFCURVE",
"-3 -107 OFFCURVE",
"-3 -122 CURVE SMOOTH",
"-3 -219 OFFCURVE",
"72 -290 OFFCURVE",
"171 -290 CURVE SMOOTH",
"356 -290 OFFCURVE",
"407 -128 OFFCURVE",
"424 37 CURVE SMOOTH"
);
}
);
width = 498;
}
);
},
{
export = 0;
glyphname = _part.j;
lastChange = "2019-12-04 11:00:45 +0000";
layers = (
{
guideLines = (
{
position = "{156, -62}";
}
);
layerId = "C1E7DAF6-BB1E-4783-B7AC-70632970FB79";
paths = (
{
closed = 1;
nodes = (
"369 570 LINE",
"350 489 OFFCURVE",
"339 397 OFFCURVE",
"339 314 CURVE SMOOTH",
"339 231 OFFCURVE",
"351 108 OFFCURVE",
"351 62 CURVE SMOOTH",
"351 -109 OFFCURVE",
"292 -210 OFFCURVE",
"196 -210 CURVE SMOOTH",
"143 -210 OFFCURVE",
"104 -181 OFFCURVE",
"104 -122 CURVE SMOOTH",
"104 -107 OFFCURVE",
"106 -90 OFFCURVE",
"110 -72 CURVE",
"20 -62 LINE",
"16 -80 OFFCURVE",
"14 -107 OFFCURVE",
"14 -122 CURVE SMOOTH",
"14 -219 OFFCURVE",
"89 -290 OFFCURVE",
"192 -290 CURVE SMOOTH",
"373 -290 OFFCURVE",
"441 -134 OFFCURVE",
"441 48 CURVE SMOOTH",
"441 101 OFFCURVE",
"429 227 OFFCURVE",
"429 303 CURVE SMOOTH",
"429 392 OFFCURVE",
"440 483 OFFCURVE",
"463 570 CURVE"
);
}
);
width = 695;
}
);
},
{
export = 0;
glyphname = _part.l;
lastChange = "2019-12-04 11:00:15 +0000";
layers = (
{
guideLines = (
{
angle = 84.9462;
position = "{-293, 0}";
}
);
layerId = "C1E7DAF6-BB1E-4783-B7AC-70632970FB79";
paths = (
{
closed = 1;
nodes = (
"239 720 LINE",
"151 720 LINE",
"112 271 LINE",
"199 271 LINE"
);
}
);
width = 374;
}
);
},
{
export = 0;
glyphname = _part.spirale;
lastChange = "2019-12-04 11:00:04 +0000";
layers = (
{
components = (
{
name = _part.termleft;
transform = "{1, 0, 0, 1, 36, -5}";
}
);
layerId = "C1E7DAF6-BB1E-4783-B7AC-70632970FB79";
paths = (
{
closed = 1;
nodes = (
"440 570 LINE",
"420 328 LINE SMOOTH",
"411 218 OFFCURVE",
"403 72 OFFCURVE",
"306 71 CURVE",
"298 -10 LINE",
"466 -10 OFFCURVE",
"496 159 OFFCURVE",
"509 309 CURVE SMOOTH",
"531 570 LINE"
);
}
);
width = 995;
}
);
},
{
export = 0;
glyphname = _part.termleft;
lastChange = "2019-12-04 11:00:19 +0000";
layers = (
{
layerId = "C1E7DAF6-BB1E-4783-B7AC-70632970FB79";
paths = (
{
closed = 1;
nodes = (
"270 76 LINE",
"246 76 OFFCURVE",
"224 86 OFFCURVE",
"208 99 CURVE",
"166 20 LINE",
"189 5 OFFCURVE",
"228 -5 OFFCURVE",
"262 -5 CURVE"
);
}
);
width = 422;
}
);
},
{
export = 0;
glyphname = _part.utop;
lastChange = "2019-12-04 11:00:30 +0000";
layers = (
{
layerId = "C1E7DAF6-BB1E-4783-B7AC-70632970FB79";
paths = (
{
closed = 1;
nodes = (
"504 435 LINE",
"473 389 OFFCURVE",
"412 356 OFFCURVE",
"353 356 CURVE SMOOTH",
"265 356 OFFCURVE",
"221 408 OFFCURVE",
"221 510 CURVE SMOOTH",
"221 529 OFFCURVE",
"221 552 OFFCURVE",
"224 570 CURVE",
"135 570 LINE",
"132 555 OFFCURVE",
"129 527 OFFCURVE",
"129 507 CURVE SMOOTH",
"129 366 OFFCURVE",
"215 276 OFFCURVE",
"352 276 CURVE SMOOTH",
"419 276 OFFCURVE",
"489 307 OFFCURVE",
"535 356 CURVE"
);
}
);
width = 783;
}
);
},
{
export = 0;
glyphname = _droit;
lastChange = "2019-11-28 13:17:42 +0000";
layers = (
{
layerId = "C1E7DAF6-BB1E-4783-B7AC-70632970FB79";
paths = (
{
closed = 1;
nodes = (
"187 570 LINE",
"135 0 LINE",
"225 0 LINE",
"278 570 LINE"
);
},
{
closed = 1;
nodes = (
"578 570 LINE",
"526 0 LINE",
"616 0 LINE",
"669 570 LINE"
);
},
{
closed = 1;
nodes = (
"246 490 LINE",
"611 490 LINE",
"619 570 LINE",
"254 570 LINE"
);
}
);
width = 804;
}
);
},
{
export = 0;
glyphname = _rond;
lastChange = "2019-11-12 19:56:12 +0000";
layers = (
{
layerId = "C1E7DAF6-BB1E-4783-B7AC-70632970FB79";
paths = (
{
closed = 1;
nodes = (
"266 70 OFFCURVE",
"212 140 OFFCURVE",
"212 256 CURVE SMOOTH",
"212 398 OFFCURVE",
"289 499 OFFCURVE",
"390 499 CURVE SMOOTH",
"474 499 OFFCURVE",
"528 429 OFFCURVE",
"528 314 CURVE SMOOTH",
"528 171 OFFCURVE",
"451 70 OFFCURVE",
"350 70 CURVE SMOOTH"
);
},
{
closed = 1;
nodes = (
"225 580 OFFCURVE",
"120 452 OFFCURVE",
"120 252 CURVE SMOOTH",
"120 95 OFFCURVE",
"212 -10 OFFCURVE",
"350 -10 CURVE SMOOTH",
"515 -10 OFFCURVE",
"620 118 OFFCURVE",
"620 318 CURVE SMOOTH",
"620 475 OFFCURVE",
"528 580 OFFCURVE",
"390 580 CURVE SMOOTH"
);
}
